<svg viewBox="0 0 1046.95 116.05" fill="#FFF" fill-rule="even-odd">
  <g id="Layer_2" data-name="Layer 2">
    <g id="Logo">
    <path class="cls-1" d="M83.25,69.38h27.28c-3.31,27.75-24.44,46.67-53.77,46.67C24.44,116.05,0,92.56,0,60.24S24.44,4.43,56.76,4.43c29.33,0,50.45,18.92,53.77,46.67H83.25c-3-13.4-12.46-21.76-26.65-21.76C39.1,29.34,27,42.42,27,60.24S39.1,91.14,56.6,91.14C70.79,91.14,80.25,82.79,83.25,69.38Z"/>
    <path class="cls-1" d="M246.6,82.79v31.06H219.95V6.63h47c26.49,0,44.31,14.51,44.31,37.68,0,15-7.73,26.8-20.5,33.27l27.59,36.26H286.17l-23-31.06Zm19.71-24c10.25,0,18.45-5.68,18.45-14.51,0-8.67-8.2-14.19-18.45-14.19H246.6v28.7Z"/>
    <path class="cls-1" d="M447.94,49.36H495.4v22.7H447.94v18.6h54.4v23.18h-81V6.63h81V29.81h-54.4Z"/>
    <path class="cls-1" d="M826.84,30.44v83.41H800.2V30.44H766V6.63H860.9V30.44Z"/>
    <path class="cls-1" d="M992.56,49.36H1040v22.7H992.56v18.6H1047v23.18h-81V6.63h81V29.81h-54.4Z"/>
    <polygon class="cls-2" points="637.97 34.8 635.7 38.84 642.94 45.48 637.97 34.8"/>
    <polygon class="cls-2" points="641.78 28.03 639.52 32.05 645.87 44.04 641.78 28.03"/>
    <polygon class="cls-2" points="646.36 19.88 643.42 25.11 648.64 43 646.36 19.88"/>
    <polygon class="cls-2" points="696.91 94.86 694 89.64 670.71 87.19 696.91 94.86"/>
    <polygon class="cls-2" points="634.25 41.42 632.4 44.7 640.08 46.42 634.25 41.42"/>
    <polygon class="cls-2" points="631.32 46.63 629.78 49.32 637.06 48.42 631.32 46.63"/>
    <polygon class="cls-2" points="652.35 15.65 650.52 12.5 648.77 15.61 650.49 43.14 652.35 15.65"/>
    <polygon class="cls-2" points="671.33 49.38 669.87 46.82 664.27 48.42 671.33 49.38"/>
    <polygon class="cls-2" points="668.7 44.73 666.97 41.65 661.25 46.42 668.7 44.73"/>
    <polygon class="cls-2" points="691.71 85.6 689.21 81.13 674.72 84.26 691.71 85.6"/>
    <polygon class="cls-2" points="665.43 38.92 663.25 35.05 658.39 45.48 665.43 38.92"/>
    <polygon class="cls-2" points="655.02 20.41 652.68 43 657.83 25.4 655.02 20.41"/>
    <polygon class="cls-2" points="661.7 32.28 659.51 28.38 655.46 44.04 661.7 32.28"/>
    <polygon class="cls-2" points="658.84 107.28 666.58 107.28 653.6 92.41 658.84 107.28"/>
    <polygon class="cls-2" points="646.8 107.28 654.99 107.28 650.56 92.68 646.8 107.28"/>
    <polygon class="cls-2" points="671.96 107.28 679.89 107.28 658.41 91.82 671.96 107.28"/>
    <polygon class="cls-2" points="687.29 107.28 695.74 107.28 662.96 90.63 687.29 107.28"/>
    <polygon class="cls-2" points="621.2 107.28 629.43 107.28 642.61 91.82 621.2 107.28"/>
    <path class="cls-2" d="M650.54,0,586.38,113.88H714.65Zm0,8.13,57,101.27H593.48Z"/>
    <polygon class="cls-2" points="699.87 100.08 666.92 88.99 701.73 107.28 703.91 107.28 699.87 100.08"/>
    <polygon class="cls-2" points="634.59 107.28 642.3 107.28 647.41 92.41 634.59 107.28"/>
    <polygon class="cls-2" points="612.08 81.24 609.31 85.6 626.29 84.26 612.08 81.24"/>
    <polygon class="cls-2" points="607.33 89.61 604.11 94.86 630.3 87.19 607.33 89.61"/>
    <polygon class="cls-2" points="601.51 99.94 597.19 107.28 601.07 107.28 634.09 88.99 601.51 99.94"/>
    <polygon class="cls-2" points="606.54 107.28 614.56 107.28 638.05 90.63 606.54 107.28"/>
  </g>
  <g id="Closed_Eye" data-name="Closed Eye">
    <path class="cls-2" id="eye-closed-bottom" d="M626.26,75l-.28-.17a6.56,6.56,0,0,0-2.16-1.12,13.32,13.32,0,0,0-2,0,4.4,4.4,0,0,1-2.09-.64,2.73,2.73,0,0,0-.79-.41c-.88-.2-1.54,1.49-1.66,2.16a3.33,3.33,0,0,0,.8,2.78,6.27,6.27,0,0,0,4.53,1.86,5.88,5.88,0,0,1,3.71.88,17,17,0,0,0,2.23,1.49,6.47,6.47,0,0,1-1.86-.49,3.83,3.83,0,0,0-1.73-.16,6,6,0,0,1-1.2.2c5.65,1.24,7.33,3.57,11,5.35,9.12,4.74,16.88,4.87,24.41,2.75,5-1.59,7.77-3.72,10.85-5l.52-.25A53.58,53.58,0,0,0,676.94,81a11.15,11.15,0,0,0,2.69-2.27c.42-.52.75-1.1,1.19-1.62.26-.3.54-.59.82-.88s.54-.68.73-.71c-.53.08-1.18.46-1.71.5a18.6,18.6,0,0,0-1.93.23,11.59,11.59,0,0,0-1.45.39c-.84.27-1.53.47-2.37.74A78.47,78.47,0,0,1,666,79.61a65.09,65.09,0,0,1-13.77,1.25A70.8,70.8,0,0,1,638,79.17c-2.34-.52-4.82-1.63-7.1-2.39A22,22,0,0,1,626.26,75Z"/>
    <path class="cls-2" id="eye-closed-top" d="M623.21,63l-.33.58q-1.13,2-2.22,4.1-.54,1-1.07,2.07c-.17.34-.89,1.29-.69,1.67a1.17,1.17,0,0,0,.56.44,4.85,4.85,0,0,0,1.93.63c.48,0,.95-.11,1.43-.13a6.16,6.16,0,0,1,3,.68,19.11,19.11,0,0,0,3.52,1.87c1.84.68,4.61,1.37,6.47,1.93a53.84,53.84,0,0,0,7.41,1.62,64.73,64.73,0,0,0,18.2.32,59,59,0,0,0,10.8-2A31.76,31.76,0,0,1,679,75.17a8.88,8.88,0,0,0,2.64-.41,4.87,4.87,0,0,1,1.2-.12c.39-.06-.73-4.22-.83-4.47a31.91,31.91,0,0,0-4.47-8.39,7.53,7.53,0,0,0-1.71-1.71c-1.33-.88-3-1-4.51-1.53-.61-.23-3.39-1.59-2.88-2.37a12.43,12.43,0,0,0,2.77,1.13,7.79,7.79,0,0,0,1.94.27c.42,0,1.23-.43,1.57-.36-5.7-1.12-7.51-3.81-11.27-5.71-9.36-5.11-17.12-4.76-24.53-1.71-4.86,2.23-7.56,3.5-10.57,6.73A36.78,36.78,0,0,0,623.21,63Z"/>
  </g>
  </g>
</svg>
